<svg xmlns="http://www.w3.org/2000/svg" id="Layer_1" width="264" height="36" data-name="Layer 1" viewBox="0 0 264 36"><defs><style>.cls-1{fill:#030303}</style></defs><path d="M25.13 27.62a6.496 6.496 0 0 1-.34 2.23 4.762 4.762 0 0 1-2.38 2.74 8.506 8.506 0 0 1-1.86.67 13.132 13.132 0 0 1-2.17.34c-.77.06-1.57.1-2.39.1H0V11.67h15.7c.63 0 1.26.03 1.9.08a10.477 10.477 0 0 1 1.82.3 7.035 7.035 0 0 1 1.61.6 4.422 4.422 0 0 1 1.3 1.01 4.567 4.567 0 0 1 .87 1.51 6.197 6.197 0 0 1 .31 2.08 5.117 5.117 0 0 1-1.06 3.41 5.508 5.508 0 0 1-3.34 1.68 11.214 11.214 0 0 1 2.75.49 5.081 5.081 0 0 1 1.87 1.03 3.876 3.876 0 0 1 1.06 1.59 6.42 6.42 0 0 1 .34 2.17ZM17.7 18.2a2.298 2.298 0 0 0-.13-.79 1.583 1.583 0 0 0-.47-.67 2.426 2.426 0 0 0-.91-.46 5.06 5.06 0 0 0-1.48-.18H5.95v4.14h8.77a5.569 5.569 0 0 0 1.48-.16 2.571 2.571 0 0 0 .91-.43 1.492 1.492 0 0 0 .47-.65 2.721 2.721 0 0 0 .12-.8Zm1.38 8.73a2.469 2.469 0 0 0-.26-1.21 1.747 1.747 0 0 0-.8-.71 4.433 4.433 0 0 0-1.41-.33c-.58-.05-1.27-.08-2.07-.08H5.95v4.67h8.59c.8 0 1.49-.03 2.07-.08a4.162 4.162 0 0 0 1.41-.34 1.747 1.747 0 0 0 .8-.71 2.338 2.338 0 0 0 .26-1.21ZM53.14 32.61a31.453 31.453 0 0 1-5.41 1.29 38.567 38.567 0 0 1-5.52.39 24.02 24.02 0 0 1-6.42-.78 13.732 13.732 0 0 1-4.74-2.25 9.736 9.736 0 0 1-2.93-3.61 11.188 11.188 0 0 1-1.01-4.83 10.613 10.613 0 0 1 1.02-4.64 10.953 10.953 0 0 1 2.89-3.72 13.6 13.6 0 0 1 4.51-2.47 18.504 18.504 0 0 1 5.9-.89 17.67 17.67 0 0 1 5.49.81 11.866 11.866 0 0 1 4.28 2.4 10.707 10.707 0 0 1 2.77 3.91 13.593 13.593 0 0 1 .99 5.36v1.48H33.24a5.522 5.522 0 0 0 .95 1.91 5.463 5.463 0 0 0 1.8 1.48 10.305 10.305 0 0 0 2.8.95 20.607 20.607 0 0 0 3.97.34 26.098 26.098 0 0 0 3.21-.2 25.633 25.633 0 0 0 2.93-.53 22.11 22.11 0 0 0 2.46-.73 10.822 10.822 0 0 0 1.77-.8v5.13Zm-4.1-11.91a5.185 5.185 0 0 0-.49-1.69 4.42 4.42 0 0 0-1.29-1.58 7.128 7.128 0 0 0-2.31-1.16 11.978 11.978 0 0 0-3.56-.46 10.756 10.756 0 0 0-3.46.5 8.906 8.906 0 0 0-2.45 1.23 6.01 6.01 0 0 0-1.53 1.59 5.192 5.192 0 0 0-.71 1.57ZM79.63 11.67l5.63 15.3 6.09-15.3h6.17L88.68 33.7h-6.61l-5.76-14.82-5.74 14.82h-6.61L55.1 11.67h6.19l5.96 14.98 5.76-14.98ZM118.02 33.7v-2.16a17.17 17.17 0 0 1-2.45 1.11 25.308 25.308 0 0 1-2.72.82 26.744 26.744 0 0 1-2.91.51 27.648 27.648 0 0 1-3.02.17 16.866 16.866 0 0 1-3.44-.34 9.341 9.341 0 0 1-2.94-1.09 5.985 5.985 0 0 1-2.06-1.97 5.42 5.42 0 0 1-.78-2.98 5.657 5.657 0 0 1 1.22-3.71 8.608 8.608 0 0 1 3.72-2.43 29.13 29.13 0 0 1 6.33-1.46q3.825-.51 9.05-.8v-.46a2.304 2.304 0 0 0-.29-1.08 2.468 2.468 0 0 0-1.05-.95 7.934 7.934 0 0 0-2.08-.67 18.333 18.333 0 0 0-3.38-.26 30.737 30.737 0 0 0-3.2.17c-1.05.11-2.07.26-3.05.46-.98.19-1.91.42-2.78.67-.88.26-1.67.52-2.39.8v-5.29a47.51 47.51 0 0 1 5.42-1.03c1-.13 2.02-.24 3.05-.32s2.01-.12 2.95-.12a26.416 26.416 0 0 1 5.12.46 13.18 13.18 0 0 1 4.03 1.42 7.445 7.445 0 0 1 2.65 2.44 6.271 6.271 0 0 1 .95 3.51V33.7Zm0-10.05q-3.435.135-5.83.37c-1.6.16-2.93.35-3.98.56a13.603 13.603 0 0 0-2.49.69 5.218 5.218 0 0 0-1.35.75 1.613 1.613 0 0 0-.55.77 2.693 2.693 0 0 0-.1.71 1.468 1.468 0 0 0 .21.75 1.717 1.717 0 0 0 .73.63 4.865 4.865 0 0 0 1.39.43 12 12 0 0 0 2.18.16 17.872 17.872 0 0 0 2.85-.22 19.366 19.366 0 0 0 2.65-.62 16.425 16.425 0 0 0 2.35-.93 13.876 13.876 0 0 0 1.96-1.15v-2.9ZM149.72 33.7a8.196 8.196 0 0 0-2.64-5.48 9.794 9.794 0 0 0-2.41-1.62 15.44 15.44 0 0 0-2.75-1.02 18.752 18.752 0 0 0-2.81-.53 24.642 24.642 0 0 0-2.61-.15h-1.76v8.8h-5.95V11.67h5.95v8.5h1.22a18.035 18.035 0 0 0 2.58-.19 16.62 16.62 0 0 0 2.67-.61 15.34 15.34 0 0 0 2.54-1.07 9.653 9.653 0 0 0 2.18-1.6 8.35 8.35 0 0 0 1.6-2.19 7.842 7.842 0 0 0 .8-2.83h6.06a11.92 11.92 0 0 1-.7 3.16 11.438 11.438 0 0 1-1.33 2.53 11.054 11.054 0 0 1-1.77 1.95 14.559 14.559 0 0 1-2 1.44 14.111 14.111 0 0 1-2.04.99 15.138 15.138 0 0 1-1.9.6 16.62 16.62 0 0 1 2.33.55 14.472 14.472 0 0 1 2.4.99 12.674 12.674 0 0 1 2.27 1.52 11.302 11.302 0 0 1 3.39 4.84 13.231 13.231 0 0 1 .74 3.46h-6.06ZM233.24 16.37c-.7 0-1.32.03-1.87.08a3.726 3.726 0 0 0-1.4.38 2.04 2.04 0 0 0-.88.91 3.723 3.723 0 0 0-.3 1.64v.82h16.61v4.7h-16.61v8.8h-5.95V18.88a8.595 8.595 0 0 1 .51-3.05 5.153 5.153 0 0 1 1.69-2.27 8.543 8.543 0 0 1 3.14-1.41 20.25 20.25 0 0 1 4.87-.49h13.13v4.7h-12.94ZM187.61 22.53a11.76 11.76 0 0 1-1.07 5.13 10.085 10.085 0 0 1-3.05 3.72 13.904 13.904 0 0 1-4.81 2.25 24.378 24.378 0 0 1-6.36.76 24.564 24.564 0 0 1-6.37-.76 14.298 14.298 0 0 1-4.85-2.25 10.005 10.005 0 0 1-3.08-3.72 11.59 11.59 0 0 1-1.08-5.13 11.62 11.62 0 0 1 1.08-5.13 10.053 10.053 0 0 1 3.08-3.71 14.22 14.22 0 0 1 4.85-2.26 27.033 27.033 0 0 1 12.73 0 13.83 13.83 0 0 1 4.81 2.26 10.053 10.053 0 0 1 3.05 3.71 11.589 11.589 0 0 1 1.07 5.13ZM220.19 22.53a11.76 11.76 0 0 1-1.07 5.13 10.085 10.085 0 0 1-3.05 3.72 13.904 13.904 0 0 1-4.81 2.25 24.378 24.378 0 0 1-6.36.76 24.564 24.564 0 0 1-6.37-.76 14.298 14.298 0 0 1-4.85-2.25 10.005 10.005 0 0 1-3.08-3.72 11.59 11.59 0 0 1-1.08-5.13 11.62 11.62 0 0 1 1.08-5.13 10.053 10.053 0 0 1 3.08-3.71 14.22 14.22 0 0 1 4.85-2.26 27.033 27.033 0 0 1 12.73 0 13.83 13.83 0 0 1 4.81 2.26 10.053 10.053 0 0 1 3.05 3.71 11.729 11.729 0 0 1 1.07 5.13ZM218.31 11.63l-2.47-2.31a10.315 10.315 0 0 0-8.06-2.52l-4.46.53-.53-4.48 4.46-.53a14.873 14.873 0 0 1 11.61 3.64l.04.04 2.49 2.33Z"/><path d="M257.86 15.14h-.09l-.3-.03h-.04a.113.113 0 0 0-.08-.01h-.05a1.846 1.846 0 0 1-.23-.04.215.215 0 0 0-.08 0c-.02-.03-.04-.02-.07-.02h-.03a5.613 5.613 0 0 1-.8-.23c-.12-.04-.24-.09-.36-.13a.052.052 0 0 0-.04-.02.612.612 0 0 0-.12-.05h-.01c0-.01 0-.01-.01-.01h-.01a.01.01 0 0 0-.01-.01h-.01a.01.01 0 0 0-.01-.01h-.02c0-.01-.01-.02-.02-.03-.13-.07-.26-.14-.39-.2-.13-.08-.25-.16-.38-.24l-.11-.08c-.03-.02-.06-.05-.09-.07-.16-.13-.31-.25-.46-.39a6.573 6.573 0 0 1-.71-.78c-.02-.03-.05-.06-.07-.09l-.08-.11c-.08-.13-.16-.25-.24-.38-.03-.06-.06-.11-.09-.17 0-.01-.01-.01-.01-.02-.07-.15-.15-.3-.22-.46-.01-.04-.03-.07-.04-.11l-.01-.01a6.077 6.077 0 0 1-.24-.72c-.03-.13-.06-.26-.09-.38 0-.02 0-.05-.03-.06a.215.215 0 0 0 0-.08 1.846 1.846 0 0 0-.04-.23v-.03c0-.01 0-.01-.01-.01a.482.482 0 0 0 0-.12 2.452 2.452 0 0 1-.02-.27v-.13c.01-.2 0-.41.01-.61a5.904 5.904 0 0 1 .24-1.32 5.578 5.578 0 0 1 .5-1.18c.01-.02.01-.03.02-.05a.161.161 0 0 0 .04-.07l.27-.42.01-.01c.01-.01.02-.02.02-.03.04-.05.07-.1.11-.15.01-.01.02-.03.03-.04.11-.13.22-.26.34-.39a6.972 6.972 0 0 1 .69-.64c.01-.01.03-.02.04-.03.05-.04.1-.07.15-.11.01-.01.02-.02.03-.02l.01-.01.42-.27a.161.161 0 0 0 .07-.04c.05-.03.11-.05.16-.08.18-.1.38-.18.57-.27l.42-.15c.31-.09.62-.16.94-.22h.03c.11-.01.22-.03.32-.04h.04c.23-.02.46-.01.69-.01h.13a2.452 2.452 0 0 0 .27.02.09.09 0 0 1 .05.01c.02.02.05.01.07.01h.03c.14.03.29.05.43.08a6.205 6.205 0 0 1 1.61.58.037.037 0 0 0 .03.01c.01 0 .01.01.02.01a1.505 1.505 0 0 0 .17.1l.35.23.11.08c.03.02.06.05.09.07.16.13.31.25.46.39a6.573 6.573 0 0 1 .71.78c.02.03.05.06.07.09l.08.11c.07.12.15.23.22.35a1.983 1.983 0 0 1 .11.2c.04.08.08.15.12.23.02.05.05.1.07.15a8.214 8.214 0 0 1 .29.78c.06.21.11.42.15.64a.06.06 0 0 0 .01.04 1.846 1.846 0 0 0 .04.23v.04a.277.277 0 0 0 .01.09v.03c.01.1.01.2.03.3v.11c0 .23 0 .47-.01.7v.03c-.02.14-.03.28-.05.42v.03c-.04.2-.08.4-.13.6a1.975 1.975 0 0 1-.08.26c-.05.13-.09.27-.14.4-.11.25-.22.49-.35.73 0 .01-.01.01-.01.02s-.01.01-.01.02c-.09.15-.19.3-.28.44l-.01.01c-.01.01-.02.02-.02.03-.04.05-.07.1-.11.15-.01.01-.02.03-.03.04-.11.13-.22.26-.34.39a6.972 6.972 0 0 1-.69.64c-.01.01-.03.02-.04.03-.05.04-.11.08-.16.12-.01 0-.01.01-.02.01s-.01.01-.02.01c-.15.09-.3.19-.44.28-.01 0-.01.01-.02.01s-.01.01-.02.01c-.05.03-.1.05-.15.08-.19.1-.38.18-.57.27l-.42.15c-.2.05-.41.12-.61.15l-.33.06h-.03c-.11.01-.22.03-.32.04h-.77Zm-2.38-9.95c-.02 0-.03.01-.04.03a.906.906 0 0 0-.16.11c-.01.01-.02.01-.03.02a3.036 3.036 0 0 0-.43.36 4.57 4.57 0 0 0-.58.66c-.01.01-.01.02-.02.03a.906.906 0 0 0-.11.16.138.138 0 0 0-.03.04c-.01.01-.02.03-.03.04 0 .01-.01.01-.01.02a2.543 2.543 0 0 0-.16.28 2.533 2.533 0 0 0-.24.53 1.815 1.815 0 0 0-.11.3 3.926 3.926 0 0 0-.19.89v.03a2.561 2.561 0 0 0-.03.39v.11a1.96 1.96 0 0 0 .01.34v.04a3.712 3.712 0 0 0 .17.94.09.09 0 0 0 .01.05 2.695 2.695 0 0 0 .16.45.875.875 0 0 0 .1.22 3.939 3.939 0 0 0 .36.63c.01.01.02.03.03.04l.01.01c.01.02.01.03.03.04a.155.155 0 0 0 .06.08 3.506 3.506 0 0 0 .29.36 4.34 4.34 0 0 0 .67.61.555.555 0 0 0 .08.06.444.444 0 0 0 .11.08 2.91 2.91 0 0 0 .62.35 1.472 1.472 0 0 0 .22.1 2.317 2.317 0 0 0 .44.16.075.075 0 0 0 .05.01 3.843 3.843 0 0 0 .69.15h.03a1.6 1.6 0 0 0 .23.03h.04a1.904 1.904 0 0 0 .34.01h.12a1.625 1.625 0 0 0 .38-.03h.03a1.544 1.544 0 0 0 .3-.04 3.424 3.424 0 0 0 .63-.16 1.142 1.142 0 0 0 .26-.09 3.076 3.076 0 0 0 .52-.24 1.923 1.923 0 0 0 .31-.18c.02-.02.05-.03.07-.05a.906.906 0 0 0 .16-.11.021.021 0 0 0 .02-.02 4.028 4.028 0 0 0 .46-.38 3.78 3.78 0 0 0 .56-.64c.01-.01.02-.01.02-.03a.906.906 0 0 0 .11-.16c0-.01.01-.01.01-.02a2.121 2.121 0 0 0 .21-.36 2.528 2.528 0 0 0 .24-.53 1.064 1.064 0 0 0 .09-.25 4.377 4.377 0 0 0 .2-.94v-.03a1.006 1.006 0 0 0 .02-.3v-.07a.01.01 0 0 0 .01-.01v-.12a1.95 1.95 0 0 0-.01-.34v-.04a1.124 1.124 0 0 0-.04-.32v-.03a3.874 3.874 0 0 0-.13-.59.14.14 0 0 0-.03-.09 1.931 1.931 0 0 0-.15-.4.875.875 0 0 0-.1-.22.536.536 0 0 0-.05-.11 2.619 2.619 0 0 0-.3-.51.283.283 0 0 0-.08-.11.444.444 0 0 0-.08-.11c-.01-.01-.01-.02-.02-.02a2.424 2.424 0 0 0-.25-.31 4.194 4.194 0 0 0-.62-.57c-.01-.01-.02-.01-.02-.02l-.01-.01a.55.55 0 0 0-.09-.07c-.01-.01-.03-.02-.04-.03l-.01-.01c-.01-.01-.03-.02-.04-.03a3.154 3.154 0 0 0-.5-.3 2.11 2.11 0 0 0-.34-.16.865.865 0 0 0-.17-.07 4.239 4.239 0 0 0-.93-.24h-.03a.148.148 0 0 0-.07-.01h-.03a1.6 1.6 0 0 0-.23-.03h-.04a1.904 1.904 0 0 0-.34-.01h-.13a1.46 1.46 0 0 0-.36.03h-.03a1.543 1.543 0 0 0-.3.04 3.923 3.923 0 0 0-.59.15 1.63 1.63 0 0 0-.31.11 3.593 3.593 0 0 0-.53.24 1.749 1.749 0 0 0-.27.16c-.01 0-.01.01-.02.01.01 0 0 .01-.02.02Z" class="cls-1"/><path d="M261.08 12.16h-1.61c-.09.02-.13-.03-.16-.11-.04-.09-.09-.18-.13-.26-.03-.07-.07-.13-.1-.2-.03-.06-.06-.13-.09-.19-.12-.27-.25-.53-.39-.79a2.22 2.22 0 0 0-.3-.49.887.887 0 0 0-.69-.32c-.17-.02-.35 0-.52-.01-.01 0-.03 0-.02.02v2.17a.215.215 0 0 0 0 .08c.01.07-.01.08-.08.08h-1.52a1.335 1.335 0 0 1 0-.2V7.11c0-.24-.01-.47 0-.71v-.44c0-.05.02-.06.07-.06h2.68c.1.01.2.01.3.02h.05c.03.02.05.01.08.01h.03l.45.09a.037.037 0 0 1 .03.01 2.092 2.092 0 0 1 .57.26l.01.01c.05.05.11.09.16.14l.07.07a1.434 1.434 0 0 1 .26.45 1.332 1.332 0 0 1 .05.19.401.401 0 0 0 .03.15v.03a2.41 2.41 0 0 1 0 .6 1.445 1.445 0 0 1-.34.79 2.007 2.007 0 0 1-.52.4.219.219 0 0 0-.05.03c-.05.02-.11.04-.16.06-.03.01-.06.02-.1.03a1.888 1.888 0 0 1 .18.06 1.6 1.6 0 0 1 .4.28c.03.03.06.07.09.1a3.31 3.31 0 0 1 .37.55c.06.11.11.23.17.34v.01c.09.2.19.4.29.59a.797.797 0 0 0 .08.16l.39.78c-.03.04-.03.04-.03.05Zm-3.41-5.07h-.2a.173.173 0 0 0-.1.01v-.01h-.26c-.03 0-.04.01-.04.04v1.51c0 .03.01.05.04.05.29-.01.58.01.87-.01a.771.771 0 0 0 .42-.13c.02 0 .03-.01.04-.03a.439.439 0 0 0 .19-.27.745.745 0 0 0 .06-.33.957.957 0 0 0-.08-.44.123.123 0 0 0-.04-.08.304.304 0 0 0-.12-.13c-.01-.01-.02-.03-.04-.03a1 1 0 0 0-.58-.14.915.915 0 0 0-.16-.01Z" class="cls-1"/></svg>